<svg width="100%" height="100%" viewBox="0 0 16 16" fill="currentColor"
  xmlns="http://www.w3.org/2000/svg">
  <g id="info" clip-path="url(#clip0_291_24028)">
    <path id="Vector"
      d="M8.00016 1.33337C4.32016 1.33337 1.3335 4.32004 1.3335 8.00004C1.3335 11.68 4.32016 14.6667 8.00016 14.6667C11.6802 14.6667 14.6668 11.68 14.6668 8.00004C14.6668 4.32004 11.6802 1.33337 8.00016 1.33337ZM8.00016 11.3334C7.6335 11.3334 7.3335 11.0334 7.3335 10.6667V8.00004C7.3335 7.63337 7.6335 7.33337 8.00016 7.33337C8.36683 7.33337 8.66683 7.63337 8.66683 8.00004V10.6667C8.66683 11.0334 8.36683 11.3334 8.00016 11.3334ZM8.66683 6.00004H7.3335V4.66671H8.66683V6.00004Z"
      fill="currentColor" />
  </g>
  <defs>
    <clipPath id="clip0_291_24028">
      <rect width="16" height="16" fill="white" />
    </clipPath>
  </defs>
</svg>