<svg width="100%" height="100%" viewBox="0 0 18 18" fill="none" xmlns="http://www.w3.org/2000/svg">
  <path
    d="M15.25 18H2.75C1.234 18 0 16.766 0 15.25V3.25C0 1.734 1.234 0.5 2.75 0.5H15.25C16.766 0.5 18 1.734 18 3.25V15.25C18 16.766 16.766 18 15.25 18ZM9.75 8.5H8.25C7.5605 8.5 7 7.9395 7 7.25C7 6.5605 7.5605 6 8.25 6H9.25C9.8135 6 10.31 6.3795 10.4565 6.9225C10.5645 7.3225 10.9775 7.5575 11.3765 7.451C11.7765 7.3425 12.0125 6.931 11.905 6.531C11.604 5.417 10.6335 4.6255 9.5 4.521V3.75C9.5 3.336 9.164 3 8.75 3C8.336 3 8 3.336 8 3.75V4.5125C6.6005 4.6395 5.5 5.818 5.5 7.25C5.5 8.766 6.734 10 8.25 10H9.75C10.4395 10 11 10.5605 11 11.25C11 11.9395 10.4395 12.5 9.75 12.5H8.25C7.681 12.5 7.1835 12.116 7.04 11.5665C6.9355 11.1655 6.5265 10.924 6.125 11.0305C5.7245 11.135 5.4845 11.5445 5.589 11.9455C5.883 13.073 6.856 13.8745 8 13.979V14.75C8 15.164 8.336 15.5 8.75 15.5C9.164 15.5 9.5 15.164 9.5 14.75V14H9.75C11.266 14 12.5 12.766 12.5 11.25C12.5 9.734 11.266 8.5 9.75 8.5Z"
    fill="green" />
</svg>