<svg width="100%" height="100%" viewBox="0 0 80 80" fill="none">
  <path
    d="M40 66.391c14.576 0 26.392-11.816 26.392-26.391 0-14.576-11.816-26.391-26.392-26.391-14.576 0-26.392 11.815-26.392 26.39 0 14.576 11.816 26.392 26.392 26.392z"
    fill="url(#pse_inline_svg__paint0_radial_2776_29856)"></path>
  <path
    d="M47.118 33.507H40.87c-.028 0-.056-.004-.083.002-.994.216-2.868 1.232-2.858 3.451-.052.854.322 2.213 2.108 2.78h4.453c.198 0 1.414.278 1.333 2.4-.081 2.139-1.905 2.416-2.167 2.7h-6.901c-.218 0-.394.207-.394.425 0 .217.176.425.394.425h6.939c.022 0 .044-.104.066-.108a3.576 3.576 0 002.851-3.458c.114-3.007-2.06-3.196-2.082-3.198l-4.396-.013c-1.502-.274-1.421-1.869-1.417-1.938 0-.01.001.015.001.005-.016-2.013 1.898-2.623 2.2-2.623h6.201c.218 0 .395-.207.395-.425 0-.217-.177-.425-.395-.425zM56.631 33.463c-.036-.01-.073.044-.11.044h-4.67c-2.112 0-3.067 2.447-3.106 2.554-.007.017-.012.005-.016.023-.048.219-1.186 5.365-1.148 7.064.037 1.598 1.665 2.18 2.52 2.27.014.002.029-.011.043-.011h6.49c.22 0 .4-.205.4-.425s-.18-.425-.4-.425h-6.466c-.203 0-1.76-.238-1.788-1.475-.015-.664.174-1.935.402-3.219l9.032-.067a.396.396 0 00.39-.327c.018-.1.424-2.409.424-3.794 0-1.648-1.915-2.188-1.997-2.212zm.84 5.544l-8.542.072c.262-1.392.529-2.533.574-2.738.091-.228.875-1.984 2.349-1.984h4.605c.25 0 1.372.44 1.372 1.375 0 1.021-.245 2.58-.358 3.276zM36.74 35.9c.235-1.595-1.779-2.393-2.156-2.393-1.627 0-4.09.056-4.347.047-.034-.003-.07.02-.105.025-1.007.16-2.374 1.457-2.813 2.656l.007.008c-.044.134-.083.34-.142.65l-.289 1.554c-.237 1.284-.55 2.996-.86 4.707-.624 3.422-1.243 6.844-1.243 6.844a.389.389 0 00.764.139c.262-1.447.691-3.816 1.121-6.178 1.014 1.28 2.276 1.414 2.339 1.42a.24.24 0 00.047.001l3.992-.114a.373.373 0 00.1-.016c1.894-.568 2.464-2.523 2.487-2.606a.428.428 0 00.01-.042l1.083-6.638c.003-.014.004-.05.005-.064zm-.775-.015L34.89 42.45c-.056.175-.551 1.603-1.91 2.04l-3.91.111c-.18-.025-1.4-.25-2.19-1.755.576-3.16 1.105-6.04 1.173-6.345.362-.974 1.534-2.02 2.192-2.132.149.009.352.01.634.01l1.511-.001c.91-.001 1.82-.005 2.105-.006.461-.003 1.583.78 1.47 1.512z"
    fill="#fff"></path>
  <path
    d="M18.758 33.282c.614 0 1.111-.531 1.111-1.186 0-.655-.497-1.185-1.111-1.185s-1.112.53-1.112 1.185.498 1.186 1.112 1.186zM17.635 28.353c0-.52-.317-.958-.755-1.117-.37.67-.711 1.356-1.023 2.06.186.15.415.243.667.243.614 0 1.111-.531 1.111-1.186zM15.391 32.096c0-.321-.12-.612-.316-.826a26.223 26.223 0 00-.609 1.992c.525-.095.925-.58.925-1.166zM18.913 47.727c.613 0 1.111-.531 1.111-1.186 0-.655-.498-1.186-1.111-1.186-.614 0-1.112.531-1.112 1.186 0 .655.498 1.186 1.112 1.186zM14.986 46.541c0-.494-.344-.9-.79-.967.126.586.271 1.165.436 1.735a1 1 0 00.354-.768zM17.63 50.407c0-.654-.497-1.185-1.111-1.185-.438 0-.813.273-.994.666.23.567.478 1.125.746 1.673.08.02.162.032.248.032.614 0 1.111-.53 1.111-1.186zM19.517 42.857h-2.229c-.144-.284-.558-.771-1.052-.771-.614 0-1.112.556-1.112 1.21 0 .656.498 1.21 1.112 1.21.494 0 .908-.233 1.052-.8h2.506l2.338-4.25h3.605v-.566h-5.91l-2.43-4.25h-3.254c-.058.282-.11.566-.16.85h3.061l1.988 3.4h-5.407c-.008.188-.014.377-.017.566h7.842l-1.933 3.4z"
    fill="#FDB718"></path>
  <path fill-rule="evenodd" clip-rule="evenodd"
    d="M32.241 32.087l.56-3.107.279.05-.156.865c.03-.021.064-.04.099-.057l.022-.011.025-.003.014.141-.014-.14h.001l.003-.001h.008l.03-.003a4.623 4.623 0 01.445-.013c.126.004.264.014.383.04.06.014.12.032.173.058.043.02.087.05.123.09a.478.478 0 01.105.095.529.529 0 01.112.363v.01l-.28 1.621-.278-.048.275-1.603a.244.244 0 00-.05-.165.186.186 0 00-.042-.038l-.03-.015-.022-.03a.106.106 0 00-.037-.025.516.516 0 00-.11-.036 1.817 1.817 0 00-.33-.033 4.05 4.05 0 00-.425.012.73.73 0 00-.215.193 1.042 1.042 0 00-.078.116l-.311 1.725-.279-.05zm-2.44-1.98h-1.165v-.283h1.212l.02.006-.04.136.04-.136h.003l.005.003.017.006a.608.608 0 01.2.128c.11.106.2.279.162.533l-.243 1.703H28.61l-.024-.009.05-.133-.05.133h-.001l-.003-.001-.007-.003a.51.51 0 01-.095-.049.758.758 0 01-.196-.167.61.61 0 01-.136-.322.828.828 0 01.093-.454l.007-.015.011-.013.11.09-.11-.09.001-.002.003-.003.01-.012a1.328 1.328 0 01.164-.16 1.04 1.04 0 01.184-.127.525.525 0 01.24-.066h.003l1.057.035.054-.376c.023-.157-.03-.241-.08-.289a.327.327 0 00-.093-.063zm.08 1.01l-1.021-.034a.252.252 0 00-.107.034.769.769 0 00-.133.092 1.297 1.297 0 00-.132.129.535.535 0 00-.058.283.327.327 0 00.074.174.476.476 0 00.161.125h1.101l.115-.802zm1.146-1.293h1.225v.283h-1.154a.898.898 0 00-.155.127.961.961 0 00-.257.498l-.002.01-.004.01v.002l-.002.005a2.23 2.23 0 00-.088.424c-.025.236-.014.515.102.754l.06.014h1.104v.283h-1.135l-.215-.048-.031-.054c-.186-.325-.197-.7-.167-.98a2.524 2.524 0 01.101-.483 1.245 1.245 0 01.562-.816.552.552 0 01.017-.01l.006-.003h.002v-.001l.064.127-.063-.127.03-.015z"
    fill="#fff"></path>
  <defs>
    <radialGradient id="pse_inline_svg__paint0_radial_2776_29856" cx="0" cy="0" r="1"
      gradientUnits="userSpaceOnUse" gradientTransform="translate(40.472 39.905) scale(26.3919)">
      <stop offset="0.316" stop-color="#0059B5"></stop>
      <stop offset="0.531" stop-color="#0051A8"></stop>
      <stop offset="0.729" stop-color="#004289"></stop>
      <stop offset="1" stop-color="#002653"></stop>
    </radialGradient>
  </defs>
</svg>