<svg width="100%" height="100%" viewBox="0 0 104 33" fill="none">
  <g clip-path="url(#nequi_inline_svg__a)">
    <path
      d="M5.3.283H.917a.919.919 0 00-.918.92v3.724c0 .507.411.919.918.919H5.3a.919.919 0 00.918-.92V1.203A.919.919 0 005.3.283z"
      fill="#DA0081"></path>
    <path
      d="M31.988.283H28.22a.918.918 0 00-.919.92v15.074c0 .306-.402.42-.547.145L17.992.686a.786.786 0 00-.709-.403h-6.265a.918.918 0 00-.918.92V25.29c0 .515.418.919.918.919h3.769c.515 0 .918-.42.918-.92V9.764c0-.306.402-.419.547-.145l9.004 16.204a.786.786 0 00.709.403h5.991c.516 0 .918-.42.918-.92V1.203a.918.918 0 00-.918-.919h.032zm22.661 16.526c0-6.788-4.413-10.157-9.261-10.157-6.298 0-9.89 4.369-9.89 10.27 0 6.707 4.51 9.9 9.745 9.9 5.234 0 8.294-2.71 9.116-6.224.113-.452-.145-.855-.822-.855h-2.963a.813.813 0 00-.773.516c-.741 1.629-1.933 2.483-4.22 2.483-2.593 0-4.333-1.628-4.59-4.933h12.74c.547 0 .918-.404.918-1zm-13.45-2.564c.548-2.434 1.966-3.514 4.108-3.514 1.917 0 3.56 1.112 3.785 3.514H41.2zm61.883-7.109h-3.785a.919.919 0 00-.918.918v17.252c0 .507.41.919.918.919h3.785a.918.918 0 00.918-.92V8.056a.918.918 0 00-.918-.92zm-28.105-.001h-3.77a.918.918 0 00-.917.92v.935c-1.128-1.322-2.98-2.241-5.412-2.241-5.444 0-8.327 4.933-8.327 10.157 0 4.563 2.367 9.673 8.214 9.673 2.094 0 4.317-1 5.525-2.418v7.416c0 .516.418.92.918.92h3.769c.515 0 .918-.42.918-.92V8.071a.918.918 0 00-.918-.92v-.016zm-8.585 15.381c-2.48 0-4.22-1.821-4.22-5.74 0-3.917 1.74-5.965 4.22-5.965 2.48 0 4.22 1.887 4.22 5.966 0 4.079-1.74 5.74-4.22 5.74zm28.653-15.38h-3.769a.918.918 0 00-.918.918v9.755c0 3.144-1.401 4.063-3.189 4.063s-3.189-.92-3.189-4.063V8.054a.918.918 0 00-.918-.918h-3.769a.918.918 0 00-.918.918v10.158c0 6.046 3.334 8.48 8.81 8.48 5.477 0 8.81-2.45 8.81-8.48V8.054a.918.918 0 00-.918-.918h-.032z"
      fill="#200020"></path>
  </g>
  <defs>
    <clipPath id="nequi_inline_svg__a">
      <path fill="#fff" transform="translate(0 .283)" d="M0 0h104v32.245H0z"></path>
    </clipPath>
  </defs>
</svg>