<svg width="100%" height="100%" viewBox="0 0 80 80" fill="none">
  <path
    d="M21.98 62.222v-2.92c0-1.116-.68-1.85-1.848-1.85-.584 0-1.21.192-1.657.83-.34-.532-.828-.83-1.561-.83-.489 0-.978.15-1.36.68v-.584h-1.02v4.674h1.02v-2.581c0-.828.436-1.21 1.115-1.21.68 0 1.02.435 1.02 1.21v2.581h1.02v-2.581c0-.828.488-1.21 1.115-1.21.68 0 1.02.435 1.02 1.21v2.581h1.136zm13.469-4.674v-1.412h-1.02v1.412h-.924v.925h.924v2.135c0 1.072.435 1.699 1.604 1.699.435 0 .924-.149 1.264-.34l-.287-.87c-.287.19-.637.243-.871.243-.489 0-.68-.286-.68-.775v-2.092h1.657v-.925H35.45zm10.313-.095c-.584 0-.977.287-1.21.68v-.585h-1.02v4.674h1.02v-2.623c0-.776.34-1.211.977-1.211.19 0 .435.053.637.095l.287-.977c-.192-.053-.489-.053-.68-.053h-.01zm-13.075.488c-.489-.34-1.168-.488-1.901-.488-1.169 0-1.944.584-1.944 1.508 0 .776.584 1.211 1.604 1.36l.488.053c.531.095.829.244.829.488 0 .34-.393.585-1.073.585-.68 0-1.21-.245-1.55-.489l-.49.775c.532.393 1.265.585 1.998.585 1.36 0 2.134-.627 2.134-1.509 0-.828-.637-1.264-1.603-1.412l-.489-.053c-.435-.053-.775-.15-.775-.436 0-.34.34-.531.87-.531.585 0 1.169.244 1.456.393l.435-.829h.01zm27.138-.488c-.584 0-.977.287-1.21.68v-.585h-1.02v4.674h1.02v-2.623c0-.776.34-1.211.977-1.211.19 0 .435.053.637.095l.287-.977c-.191-.053-.489-.053-.68-.053h-.01zm-13.022 2.432c0 1.413.977 2.433 2.486 2.433.68 0 1.168-.15 1.657-.532l-.489-.828c-.393.297-.775.436-1.21.436-.83 0-1.413-.585-1.413-1.509 0-.87.584-1.455 1.412-1.508.436 0 .829.149 1.211.435l.489-.828c-.489-.393-.978-.531-1.657-.531-1.509 0-2.486 1.02-2.486 2.432zm9.432-2.337h-1.02v.585c-.34-.436-.828-.68-1.455-.68-1.317 0-2.336 1.02-2.336 2.432 0 1.413 1.02 2.433 2.336 2.433.68 0 1.169-.245 1.456-.68v.584h1.02v-4.674zm-3.75 2.337c0-.828.532-1.508 1.413-1.508.829 0 1.413.637 1.413 1.508 0 .829-.584 1.509-1.413 1.509-.87-.054-1.412-.68-1.412-1.509zm-12.204-2.432c-1.36 0-2.336.977-2.336 2.432s.977 2.433 2.379 2.433c.68 0 1.36-.192 1.901-.627l-.488-.733c-.393.297-.871.489-1.36.489-.627 0-1.264-.298-1.413-1.116h3.452v-.393c.053-1.508-.828-2.485-2.135-2.485zm0 .87c.638 0 1.073.394 1.169 1.116h-2.433c.096-.627.531-1.115 1.264-1.115zM65.625 55.7h-1.02v2.433c-.34-.436-.828-.68-1.455-.68-1.317 0-2.337 1.02-2.337 2.432 0 1.413 1.02 2.433 2.337 2.433.68 0 1.168-.245 1.455-.68v.584h1.02V55.7zm-3.75 4.185c0-.828.531-1.508 1.413-1.508.829 0 1.413.637 1.413 1.508 0 .829-.584 1.509-1.413 1.509-.871-.054-1.413-.68-1.413-1.509zm-34.138-2.337h-1.02v.585c-.34-.436-.828-.68-1.455-.68-1.317 0-2.336 1.02-2.336 2.432 0 1.413 1.02 2.433 2.336 2.433.68 0 1.169-.245 1.456-.68v.584h1.02v-4.674zm-3.792 2.337c0-.828.531-1.508 1.413-1.508.828 0 1.413.637 1.413 1.508 0 .829-.585 1.509-1.413 1.509-.871-.054-1.413-.68-1.413-1.509z"
    fill="#fff"></path>
  <path d="M47.653 22.104H32.336v27.531h15.317V22.104z" fill="#F94D00"></path>
  <path
    d="M33.314 35.859c0-5.598 2.623-10.558 6.66-13.766a17.39 17.39 0 00-10.803-3.75c-9.676.012-17.504 7.84-17.504 17.516 0 9.676 7.828 17.505 17.504 17.505 4.09 0 7.828-1.413 10.802-3.75a17.484 17.484 0 01-6.66-13.766"
    fill="#EF0000"></path>
  <path
    d="M68.333 35.859c0 9.676-7.828 17.505-17.504 17.505-4.09 0-7.828-1.413-10.803-3.75 4.09-3.208 6.66-8.168 6.66-13.766 0-5.597-2.623-10.557-6.66-13.765a17.39 17.39 0 0110.803-3.75c9.676 0 17.504 7.882 17.504 17.505"
    fill="#FF9600"></path>
</svg>