<svg width="100%" height="100%" viewBox="0 0 14 14" fill="none" xmlns="http://www.w3.org/2000/svg"
  preserveAspectRatio='xMinYMin slice'>
  <path
    d="M7.00005 0.333336C5.18562 0.333336 3.53735 1.06244 2.33338 2.24284V2C2.3346 1.91087 2.31793 1.82239 2.28436 1.73981C2.25079 1.65722 2.201 1.58221 2.13794 1.5192C2.07487 1.4562 1.99981 1.40648 1.91719 1.37299C1.83458 1.3395 1.74609 1.32292 1.65695 1.32422C1.48025 1.32681 1.31181 1.39944 1.18864 1.52616C1.06546 1.65287 0.997632 1.8233 1.00005 2V4C1.00026 4.17205 1.06698 4.33736 1.18625 4.46136C1.30552 4.58537 1.46811 4.65846 1.64002 4.66537C1.73888 4.68871 1.84175 4.68915 1.9408 4.66667H3.66672C3.75506 4.66792 3.84277 4.6516 3.92474 4.61866C4.00672 4.58571 4.08134 4.53681 4.14425 4.47478C4.20716 4.41275 4.25712 4.33883 4.29122 4.25733C4.32532 4.17582 4.34288 4.08835 4.34288 4C4.34288 3.91165 4.32532 3.82418 4.29122 3.74268C4.25712 3.66117 4.20716 3.58726 4.14425 3.52523C4.08134 3.4632 4.00672 3.41429 3.92474 3.38135C3.84277 3.34841 3.75506 3.33209 3.66672 3.33334H3.12961C4.10045 2.30819 5.47191 1.66667 7.00005 1.66667C9.85241 1.66667 12.1692 3.88962 12.3249 6.69922C12.329 6.7872 12.3504 6.87349 12.388 6.95313C12.4256 7.03277 12.4786 7.10417 12.544 7.16322C12.6093 7.22226 12.6857 7.26777 12.7687 7.29712C12.8518 7.32647 12.9398 7.33908 13.0277 7.33422C13.1157 7.32936 13.2018 7.30713 13.2811 7.26881C13.3604 7.23049 13.4313 7.17684 13.4897 7.11096C13.5482 7.04508 13.593 6.96827 13.6216 6.88497C13.6502 6.80167 13.662 6.71354 13.6563 6.62565C13.4621 3.12192 10.5484 0.333336 7.00005 0.333336ZM6.99028 2.65755C6.81359 2.66014 6.64514 2.73278 6.52197 2.85949C6.3988 2.9862 6.33097 3.15664 6.33338 3.33334V3.41862C5.39428 3.61936 4.66672 4.42143 4.66672 5.41667C4.66672 6.55937 5.60735 7.5 6.75005 7.5H7.08338C7.59731 7.5 8.00005 7.90274 8.00005 8.41667C8.00005 8.9306 7.59731 9.33333 7.08338 9.33333H6.66672C6.34994 9.33333 6.0957 9.12067 6.02153 8.83594C6.0003 8.75033 5.96229 8.66978 5.90971 8.59896C5.85712 8.52814 5.79101 8.46846 5.71519 8.42338C5.63938 8.37829 5.55537 8.3487 5.46804 8.33631C5.38071 8.32393 5.29179 8.32899 5.20643 8.35121C5.12107 8.37344 5.04096 8.41238 4.97076 8.46578C4.90055 8.51918 4.84164 8.58598 4.79744 8.66231C4.75324 8.73864 4.72462 8.82298 4.71324 8.91045C4.70187 8.99792 4.70796 9.08678 4.73117 9.17188C4.92734 9.92502 5.56252 10.476 6.33338 10.61V10.6667C6.33213 10.755 6.34845 10.8427 6.3814 10.9247C6.41434 11.0067 6.46325 11.0813 6.52528 11.1442C6.58731 11.2071 6.66122 11.2571 6.74272 11.2912C6.82423 11.3253 6.9117 11.3428 7.00005 11.3428C7.0884 11.3428 7.17587 11.3253 7.25737 11.2912C7.33888 11.2571 7.41279 11.2071 7.47482 11.1442C7.53685 11.0813 7.58576 11.0067 7.6187 10.9247C7.65164 10.8427 7.66797 10.755 7.66672 10.6667V10.5475C8.61539 10.2833 9.33338 9.44498 9.33338 8.41667C9.33338 7.18193 8.31812 6.16667 7.08338 6.16667H6.75005C6.32808 6.16667 6.00005 5.83864 6.00005 5.41667C6.00005 4.9947 6.32808 4.66667 6.75005 4.66667H7.16672C7.48111 4.66667 7.73451 4.87734 7.8106 5.15886C7.83279 5.24411 7.87166 5.32413 7.92495 5.39427C7.97825 5.46442 8.04492 5.52331 8.12111 5.56753C8.19731 5.61176 8.28151 5.64045 8.36885 5.65194C8.4562 5.66343 8.54495 5.6575 8.62999 5.63449C8.71503 5.61148 8.79466 5.57184 8.86429 5.51787C8.93392 5.4639 8.99217 5.39666 9.03566 5.32005C9.07915 5.24343 9.10702 5.15896 9.11767 5.07151C9.12832 4.98406 9.12154 4.89536 9.09771 4.81055C8.91105 4.11992 8.35548 3.59888 7.66672 3.41797V3.33334C7.66794 3.2442 7.65127 3.15572 7.6177 3.07314C7.58413 2.99056 7.53434 2.91554 7.47127 2.85254C7.4082 2.78953 7.33314 2.73981 7.25053 2.70632C7.16791 2.67283 7.07942 2.65625 6.99028 2.65755ZM1.02869 6.66211C0.935658 6.65936 0.843075 6.67611 0.756905 6.7113C0.670734 6.74649 0.592886 6.79933 0.528371 6.86642C0.463856 6.93351 0.414102 7.01336 0.382314 7.10084C0.350525 7.18833 0.337405 7.28149 0.343799 7.37435C0.53804 10.8781 3.45174 13.6667 7.00005 13.6667C8.81447 13.6667 10.4628 12.9376 11.6667 11.7572V12C11.6655 12.0883 11.6818 12.1761 11.7147 12.258C11.7477 12.34 11.7966 12.4146 11.8586 12.4775C11.9206 12.5405 11.9946 12.5904 12.0761 12.6245C12.1576 12.6586 12.245 12.6762 12.3334 12.6762C12.4217 12.6762 12.5092 12.6586 12.5907 12.6245C12.6722 12.5904 12.7461 12.5405 12.8082 12.4775C12.8702 12.4146 12.9191 12.34 12.952 12.258C12.985 12.1761 13.0013 12.0883 13 12V10C12.9998 9.82795 12.9331 9.66264 12.8138 9.53864C12.6946 9.41464 12.532 9.34154 12.3601 9.33464C12.2612 9.3113 12.1583 9.31085 12.0593 9.33333H10.3334C10.245 9.33209 10.1573 9.34841 10.0754 9.38135C9.99337 9.41429 9.91876 9.4632 9.85585 9.52523C9.79293 9.58726 9.74298 9.66117 9.70888 9.74268C9.67478 9.82418 9.65722 9.91165 9.65722 10C9.65722 10.0884 9.67478 10.1758 9.70888 10.2573C9.74298 10.3388 9.79293 10.4127 9.85585 10.4748C9.91876 10.5368 9.99337 10.5857 10.0754 10.6187C10.1573 10.6516 10.245 10.6679 10.3334 10.6667H10.8705C9.89965 11.6918 8.52819 12.3333 7.00005 12.3333C4.14769 12.3333 1.83094 10.1104 1.67518 7.30078C1.66816 7.13231 1.59756 6.97275 1.4776 6.85425C1.35765 6.73574 1.19724 6.66709 1.02869 6.66211Z"
    fill="red" />
</svg>