<svg width="100%" height="100%" viewBox="0 0 65 64" fill="none">
  <path
    d="M17.062 14.049c9.012-2.583 18.023-4.235 27.35-5.372 1.016-.103 1.998.551 2.384 1.55.876 2.341 1.297 3.512 2.139 5.853.385 1.136-.21 2.238-1.298 2.376-9.537 1.377-18.794 3.27-28.015 6.06-1.122.378-2.244-.207-2.524-1.274-.667-2.583-.982-3.857-1.648-6.405-.281-1.136.42-2.41 1.612-2.788zM9.91 34.156c13.499-5.887 27.7-9.434 42.285-11.259.982-.103 1.929.586 2.28 1.653a267.985 267.985 0 011.893 5.647c.386 1.102-.105 2.169-1.052 2.307-14.832 2.341-29.278 6.266-42.987 12.43-1.122.55-2.209 0-2.454-1.171-.526-2.755-.807-4.098-1.333-6.852-.21-1.068.386-2.307 1.368-2.755zM25.162 45.45c8.836-2.996 17.742-5.337 26.858-7.265 1.017-.207 2.069.516 2.42 1.652.736 2.273 1.121 3.41 1.823 5.716.315 1.033-.105 2.032-.982 2.238-9.081 2.17-17.987 4.89-26.823 7.988-1.262.482-2.63-.138-2.98-1.343l-1.754-6.37c-.315-1.067.316-2.203 1.438-2.616z"
    fill="#1E1E1E"></path>
</svg>